<mxfile host="app.diagrams.net" modified="2021-06-17T08:31:43.543Z" agent="5.0 (Windows NT 10.0; Win64; x64) AppleWebKit/537.36 (KHTML, like Gecko) Chrome/89.0.4389.114 Safari/537.36" etag="Oi9RjTfP8-YwZkNHEJeo" version="14.7.6" type="github">
  <diagram id="6a731a19-8d31-9384-78a2-239565b7b9f0" name="Page-1">
    <mxGraphModel dx="1422" dy="772" grid="1" gridSize="10" guides="1" tooltips="1" connect="1" arrows="1" fold="1" page="1" pageScale="1" pageWidth="1169" pageHeight="827" background="none" math="0" shadow="0">
      <root>
        <mxCell id="0" />
        <mxCell id="1" parent="0" />
        <mxCell id="DNsUjNBopcA5bY58RUFi-60" style="edgeStyle=orthogonalEdgeStyle;rounded=0;orthogonalLoop=1;jettySize=auto;html=1;entryX=0.5;entryY=0;entryDx=0;entryDy=0;" edge="1" parent="1" source="DNsUjNBopcA5bY58RUFi-57" target="DNsUjNBopcA5bY58RUFi-69">
          <mxGeometry relative="1" as="geometry">
            <mxPoint x="820" y="453" as="targetPoint" />
          </mxGeometry>
        </mxCell>
        <mxCell id="DNsUjNBopcA5bY58RUFi-61" value="有关联关系" style="edgeLabel;html=1;align=center;verticalAlign=middle;resizable=0;points=[];" vertex="1" connectable="0" parent="DNsUjNBopcA5bY58RUFi-60">
          <mxGeometry x="-0.7556" y="-1" relative="1" as="geometry">
            <mxPoint as="offset" />
          </mxGeometry>
        </mxCell>
        <mxCell id="DNsUjNBopcA5bY58RUFi-57" value="进度调整" style="shape=parallelogram;html=1;strokeWidth=2;perimeter=parallelogramPerimeter;whiteSpace=wrap;rounded=1;arcSize=12;size=0.23;" vertex="1" parent="1">
          <mxGeometry x="770" y="280" width="100" height="60" as="geometry" />
        </mxCell>
        <mxCell id="DNsUjNBopcA5bY58RUFi-59" style="edgeStyle=orthogonalEdgeStyle;rounded=0;orthogonalLoop=1;jettySize=auto;html=1;entryX=0.5;entryY=0;entryDx=0;entryDy=0;" edge="1" parent="1" source="DNsUjNBopcA5bY58RUFi-58" target="DNsUjNBopcA5bY58RUFi-57">
          <mxGeometry relative="1" as="geometry" />
        </mxCell>
        <mxCell id="DNsUjNBopcA5bY58RUFi-58" value="进度任务回写" style="shape=parallelogram;html=1;strokeWidth=2;perimeter=parallelogramPerimeter;whiteSpace=wrap;rounded=1;arcSize=12;size=0.23;" vertex="1" parent="1">
          <mxGeometry x="770" y="130" width="100" height="60" as="geometry" />
        </mxCell>
        <mxCell id="DNsUjNBopcA5bY58RUFi-74" style="edgeStyle=orthogonalEdgeStyle;rounded=0;orthogonalLoop=1;jettySize=auto;html=1;" edge="1" parent="1" source="DNsUjNBopcA5bY58RUFi-62" target="DNsUjNBopcA5bY58RUFi-68">
          <mxGeometry relative="1" as="geometry">
            <Array as="points">
              <mxPoint x="630" y="480" />
            </Array>
          </mxGeometry>
        </mxCell>
        <mxCell id="DNsUjNBopcA5bY58RUFi-77" style="edgeStyle=orthogonalEdgeStyle;rounded=0;orthogonalLoop=1;jettySize=auto;html=1;entryX=0;entryY=0.5;entryDx=0;entryDy=0;" edge="1" parent="1" source="DNsUjNBopcA5bY58RUFi-62" target="DNsUjNBopcA5bY58RUFi-69">
          <mxGeometry relative="1" as="geometry">
            <Array as="points">
              <mxPoint x="630" y="480" />
            </Array>
          </mxGeometry>
        </mxCell>
        <mxCell id="DNsUjNBopcA5bY58RUFi-96" value="有关联关系" style="edgeLabel;html=1;align=center;verticalAlign=middle;resizable=0;points=[];" vertex="1" connectable="0" parent="DNsUjNBopcA5bY58RUFi-77">
          <mxGeometry x="-0.6076" y="1" relative="1" as="geometry">
            <mxPoint as="offset" />
          </mxGeometry>
        </mxCell>
        <mxCell id="DNsUjNBopcA5bY58RUFi-62" value="版本变更" style="shape=parallelogram;html=1;strokeWidth=2;perimeter=parallelogramPerimeter;whiteSpace=wrap;rounded=1;arcSize=12;size=0.23;" vertex="1" parent="1">
          <mxGeometry x="580" y="280" width="100" height="60" as="geometry" />
        </mxCell>
        <mxCell id="DNsUjNBopcA5bY58RUFi-86" style="edgeStyle=orthogonalEdgeStyle;rounded=0;orthogonalLoop=1;jettySize=auto;html=1;entryX=0;entryY=0.5;entryDx=0;entryDy=0;" edge="1" parent="1" source="DNsUjNBopcA5bY58RUFi-63" target="DNsUjNBopcA5bY58RUFi-99">
          <mxGeometry relative="1" as="geometry">
            <mxPoint x="180" y="640" as="targetPoint" />
          </mxGeometry>
        </mxCell>
        <mxCell id="DNsUjNBopcA5bY58RUFi-94" value="增删" style="edgeLabel;html=1;align=center;verticalAlign=middle;resizable=0;points=[];" vertex="1" connectable="0" parent="DNsUjNBopcA5bY58RUFi-86">
          <mxGeometry x="-0.6277" relative="1" as="geometry">
            <mxPoint x="1" as="offset" />
          </mxGeometry>
        </mxCell>
        <mxCell id="DNsUjNBopcA5bY58RUFi-89" style="edgeStyle=orthogonalEdgeStyle;rounded=0;orthogonalLoop=1;jettySize=auto;html=1;entryX=0.5;entryY=0;entryDx=0;entryDy=0;" edge="1" parent="1" source="DNsUjNBopcA5bY58RUFi-63" target="DNsUjNBopcA5bY58RUFi-64">
          <mxGeometry relative="1" as="geometry" />
        </mxCell>
        <mxCell id="DNsUjNBopcA5bY58RUFi-90" value="删除" style="edgeLabel;html=1;align=center;verticalAlign=middle;resizable=0;points=[];" vertex="1" connectable="0" parent="DNsUjNBopcA5bY58RUFi-89">
          <mxGeometry x="0.2721" y="2" relative="1" as="geometry">
            <mxPoint as="offset" />
          </mxGeometry>
        </mxCell>
        <mxCell id="DNsUjNBopcA5bY58RUFi-91" style="edgeStyle=orthogonalEdgeStyle;rounded=0;orthogonalLoop=1;jettySize=auto;html=1;" edge="1" parent="1" source="DNsUjNBopcA5bY58RUFi-63" target="DNsUjNBopcA5bY58RUFi-62">
          <mxGeometry relative="1" as="geometry" />
        </mxCell>
        <mxCell id="DNsUjNBopcA5bY58RUFi-92" value="删除" style="edgeLabel;html=1;align=center;verticalAlign=middle;resizable=0;points=[];" vertex="1" connectable="0" parent="DNsUjNBopcA5bY58RUFi-91">
          <mxGeometry x="0.3348" y="-1" relative="1" as="geometry">
            <mxPoint as="offset" />
          </mxGeometry>
        </mxCell>
        <mxCell id="DNsUjNBopcA5bY58RUFi-63" value="模型增删" style="shape=parallelogram;html=1;strokeWidth=2;perimeter=parallelogramPerimeter;whiteSpace=wrap;rounded=1;arcSize=12;size=0.23;" vertex="1" parent="1">
          <mxGeometry x="430" y="130" width="100" height="60" as="geometry" />
        </mxCell>
        <mxCell id="DNsUjNBopcA5bY58RUFi-85" style="edgeStyle=orthogonalEdgeStyle;rounded=0;orthogonalLoop=1;jettySize=auto;html=1;entryX=0.5;entryY=0;entryDx=0;entryDy=0;" edge="1" parent="1" source="DNsUjNBopcA5bY58RUFi-64" target="DNsUjNBopcA5bY58RUFi-99">
          <mxGeometry relative="1" as="geometry">
            <mxPoint x="220" y="610" as="targetPoint" />
            <Array as="points">
              <mxPoint x="300" y="310" />
            </Array>
          </mxGeometry>
        </mxCell>
        <mxCell id="DNsUjNBopcA5bY58RUFi-93" value="增删改" style="edgeLabel;html=1;align=center;verticalAlign=middle;resizable=0;points=[];" vertex="1" connectable="0" parent="DNsUjNBopcA5bY58RUFi-85">
          <mxGeometry x="-0.4742" y="-1" relative="1" as="geometry">
            <mxPoint x="1" as="offset" />
          </mxGeometry>
        </mxCell>
        <mxCell id="DNsUjNBopcA5bY58RUFi-112" style="edgeStyle=orthogonalEdgeStyle;rounded=0;orthogonalLoop=1;jettySize=auto;html=1;entryX=0.6;entryY=0.017;entryDx=0;entryDy=0;entryPerimeter=0;" edge="1" parent="1" source="DNsUjNBopcA5bY58RUFi-64" target="DNsUjNBopcA5bY58RUFi-68">
          <mxGeometry relative="1" as="geometry" />
        </mxCell>
        <mxCell id="DNsUjNBopcA5bY58RUFi-113" value="更新或者删除(有关联关系)" style="edgeLabel;html=1;align=center;verticalAlign=middle;resizable=0;points=[];" vertex="1" connectable="0" parent="DNsUjNBopcA5bY58RUFi-112">
          <mxGeometry x="0.7114" y="-1" relative="1" as="geometry">
            <mxPoint x="1" y="-45" as="offset" />
          </mxGeometry>
        </mxCell>
        <mxCell id="DNsUjNBopcA5bY58RUFi-64" value="自定义工程量" style="shape=parallelogram;html=1;strokeWidth=2;perimeter=parallelogramPerimeter;whiteSpace=wrap;rounded=1;arcSize=12;size=0.23;" vertex="1" parent="1">
          <mxGeometry x="430" y="280" width="100" height="60" as="geometry" />
        </mxCell>
        <mxCell id="DNsUjNBopcA5bY58RUFi-109" style="edgeStyle=orthogonalEdgeStyle;rounded=0;orthogonalLoop=1;jettySize=auto;html=1;entryX=0;entryY=0.5;entryDx=0;entryDy=0;" edge="1" parent="1" source="DNsUjNBopcA5bY58RUFi-68" target="DNsUjNBopcA5bY58RUFi-101">
          <mxGeometry relative="1" as="geometry">
            <mxPoint x="820" y="660" as="targetPoint" />
            <Array as="points">
              <mxPoint x="510" y="570" />
              <mxPoint x="730" y="570" />
              <mxPoint x="730" y="697" />
            </Array>
          </mxGeometry>
        </mxCell>
        <mxCell id="DNsUjNBopcA5bY58RUFi-110" style="edgeStyle=orthogonalEdgeStyle;rounded=0;orthogonalLoop=1;jettySize=auto;html=1;entryX=0;entryY=0.5;entryDx=0;entryDy=0;exitX=0;exitY=0.5;exitDx=0;exitDy=0;" edge="1" parent="1" source="DNsUjNBopcA5bY58RUFi-68" target="DNsUjNBopcA5bY58RUFi-102">
          <mxGeometry relative="1" as="geometry">
            <Array as="points">
              <mxPoint x="390" y="480" />
              <mxPoint x="390" y="697" />
            </Array>
          </mxGeometry>
        </mxCell>
        <mxCell id="DNsUjNBopcA5bY58RUFi-111" style="edgeStyle=orthogonalEdgeStyle;rounded=0;orthogonalLoop=1;jettySize=auto;html=1;entryX=0;entryY=0.5;entryDx=0;entryDy=0;exitX=0.6;exitY=-0.033;exitDx=0;exitDy=0;exitPerimeter=0;" edge="1" parent="1" source="DNsUjNBopcA5bY58RUFi-68" target="DNsUjNBopcA5bY58RUFi-103">
          <mxGeometry relative="1" as="geometry">
            <Array as="points">
              <mxPoint x="470" y="448" />
              <mxPoint x="470" y="600" />
              <mxPoint x="560" y="600" />
              <mxPoint x="560" y="697" />
            </Array>
          </mxGeometry>
        </mxCell>
        <mxCell id="DNsUjNBopcA5bY58RUFi-68" value="造价关联" style="shape=parallelogram;html=1;strokeWidth=2;perimeter=parallelogramPerimeter;whiteSpace=wrap;rounded=1;arcSize=12;size=0.23;" vertex="1" parent="1">
          <mxGeometry x="420" y="450" width="100" height="60" as="geometry" />
        </mxCell>
        <mxCell id="DNsUjNBopcA5bY58RUFi-108" style="edgeStyle=orthogonalEdgeStyle;rounded=0;orthogonalLoop=1;jettySize=auto;html=1;entryX=0.5;entryY=0;entryDx=0;entryDy=0;" edge="1" parent="1" source="DNsUjNBopcA5bY58RUFi-69" target="DNsUjNBopcA5bY58RUFi-101">
          <mxGeometry relative="1" as="geometry" />
        </mxCell>
        <mxCell id="DNsUjNBopcA5bY58RUFi-69" value="进度关联" style="shape=parallelogram;html=1;strokeWidth=2;perimeter=parallelogramPerimeter;whiteSpace=wrap;rounded=1;arcSize=12;size=0.23;" vertex="1" parent="1">
          <mxGeometry x="770" y="450" width="100" height="60" as="geometry" />
        </mxCell>
        <mxCell id="DNsUjNBopcA5bY58RUFi-99" value="工程提量" style="shape=process;whiteSpace=wrap;html=1;backgroundOutline=1;" vertex="1" parent="1">
          <mxGeometry x="240" y="667" width="120" height="60" as="geometry" />
        </mxCell>
        <mxCell id="DNsUjNBopcA5bY58RUFi-100" value="装配式" style="shape=process;whiteSpace=wrap;html=1;backgroundOutline=1;" vertex="1" parent="1">
          <mxGeometry x="240" y="767" width="120" height="60" as="geometry" />
        </mxCell>
        <mxCell id="DNsUjNBopcA5bY58RUFi-101" value="模拟建造" style="shape=process;whiteSpace=wrap;html=1;backgroundOutline=1;" vertex="1" parent="1">
          <mxGeometry x="760" y="667" width="120" height="60" as="geometry" />
        </mxCell>
        <mxCell id="DNsUjNBopcA5bY58RUFi-102" value="实际成本分析" style="shape=process;whiteSpace=wrap;html=1;backgroundOutline=1;" vertex="1" parent="1">
          <mxGeometry x="410" y="667" width="120" height="60" as="geometry" />
        </mxCell>
        <mxCell id="DNsUjNBopcA5bY58RUFi-103" value="人材机分析" style="shape=process;whiteSpace=wrap;html=1;backgroundOutline=1;" vertex="1" parent="1">
          <mxGeometry x="590" y="667" width="120" height="60" as="geometry" />
        </mxCell>
        <mxCell id="DNsUjNBopcA5bY58RUFi-106" value="&lt;span&gt;&lt;b&gt;模拟建造&lt;/b&gt;&lt;br&gt;1、每天的实际造价和计划造价&lt;/span&gt;&lt;br&gt;&lt;span&gt;2、每期的实际造价和计划造价3、按照工程存储&lt;/span&gt;" style="shape=note;whiteSpace=wrap;html=1;backgroundOutline=1;darkOpacity=0.05;align=left;" vertex="1" parent="1">
          <mxGeometry x="970" y="450" width="180" height="83" as="geometry" />
        </mxCell>
      </root>
    </mxGraphModel>
  </diagram>
</mxfile>
